<svg id="Capa_1" enable-background="new 0 0 511.998 511.998" height="512" viewBox="0 0 511.998 511.998" width="512" xmlns="http://www.w3.org/2000/svg"><g><path d="m133.019 326.14c4.142 0 7.5-3.358 7.5-7.5s-3.358-7.5-7.5-7.5h-27.239c-3.329-12.731-14.928-22.154-28.688-22.154-16.349 0-29.649 13.301-29.649 29.65s13.301 29.649 29.649 29.649c13.757 0 25.353-9.418 28.685-22.145zm-55.927 7.145c-8.078 0-14.649-6.572-14.649-14.649 0-8.078 6.572-14.65 14.649-14.65 8.071 0 14.637 6.56 14.649 14.628 0 .009-.001.018-.001.026 0 .007.001.015.001.022-.015 8.065-6.58 14.623-14.649 14.623z"/><path d="m434.906 400.302c-13.759 0-25.356 9.421-28.687 22.149h-92.562c-23.192 0-42.061-18.868-42.061-42.061v-34.646c10.439 11.391 25.428 18.547 42.061 18.547h20.057c3.331 12.729 14.928 22.149 28.686 22.149 16.349 0 29.649-13.301 29.649-29.649 0-16.349-13.301-29.65-29.649-29.65-13.758 0-25.356 9.421-28.686 22.15h-20.057c-23.192 0-42.061-18.868-42.061-42.061v-38.056c0-.032.002-.064.002-.096v-3.298c36.36 27.436 88.445 24.609 121.553-8.499 17.544-17.544 27.207-40.864 27.207-65.663 0-24.806-9.662-48.129-27.207-65.673l-26.95-26.95c-2.929-2.929-7.678-2.929-10.606 0-2.929 2.929-2.929 7.678 0 10.606l26.95 26.95c14.711 14.711 22.813 34.268 22.813 55.067 0 20.792-8.102 40.345-22.813 55.057-15.183 15.182-35.119 22.772-55.062 22.771-19.938-.002-39.883-7.592-55.062-22.771l-.823-.823v-29.318l51.413-51.413c2.929-2.929 2.929-7.678 0-10.606-2.929-2.929-7.678-2.929-10.606 0l-40.807 40.807v-57.795l38.716-38.715c2.929-2.929 2.929-7.678 0-10.606-2.929-2.929-7.678-2.929-10.606 0l-28.109 28.109v-43.865c0-4.142-3.358-7.5-7.5-7.5s-7.5 3.358-7.5 7.5v43.87l-28.114-28.114c-2.929-2.929-7.678-2.929-10.606 0-2.929 2.929-2.929 7.678 0 10.606l38.72 38.72v57.795l-40.812-40.812c-2.929-2.929-7.678-2.929-10.606 0-2.929 2.929-2.929 7.678 0 10.606l51.418 51.418v29.313l-.823.823c-14.705 14.705-34.258 22.803-55.057 22.803-20.806 0-40.362-8.098-55.067-22.803-14.708-14.708-22.809-34.263-22.809-55.062s8.101-40.354 22.809-55.062l118.447-118.445 70.337 70.337c2.929 2.929 7.678 2.929 10.606 0 2.929-2.929 2.929-7.678 0-10.606l-75.64-75.64c-2.929-2.929-7.678-2.929-10.606 0l-123.75 123.75c-17.542 17.541-27.202 40.862-27.202 65.668s9.661 48.127 27.202 65.668c17.538 17.538 40.861 27.197 65.673 27.197 20.44 0 39.861-6.573 55.88-18.694v3.289h-.002v.101c-.052 23.147-18.898 41.964-42.058 41.964h-51.54c-4.142 0-7.5 3.358-7.5 7.5s3.358 7.5 7.5 7.5h51.54c16.631 0 31.619-7.155 42.058-18.545v34.639c0 23.192-18.868 42.061-42.061 42.061h-51.561c-3.33-12.729-14.928-22.15-28.686-22.15-16.349 0-29.65 13.301-29.65 29.65s13.301 29.649 29.65 29.649c13.758 0 25.356-9.421 28.686-22.149h51.561c16.632 0 31.621-7.156 42.061-18.548v72.916c-12.729 3.331-22.149 14.928-22.149 28.686 0 16.349 13.301 29.649 29.649 29.649 16.349 0 29.65-13.301 29.65-29.649 0-13.758-9.421-25.356-22.15-28.687v-34.758c10.439 11.391 25.428 18.547 42.061 18.547h92.562c3.33 12.729 14.928 22.15 28.687 22.15 16.349 0 29.649-13.301 29.649-29.65 0-16.348-13.301-29.649-29.65-29.649zm-72.506-58.159c8.078 0 14.649 6.572 14.649 14.65s-6.572 14.649-14.649 14.649-14.649-6.572-14.649-14.649c0-8.078 6.572-14.65 14.649-14.65zm-228.111 64.301c-8.078 0-14.65-6.572-14.65-14.649 0-8.078 6.572-14.65 14.65-14.65s14.649 6.572 14.649 14.65c0 8.077-6.571 14.649-14.649 14.649zm144.457 75.904c0 8.078-6.572 14.649-14.65 14.649s-14.649-6.572-14.649-14.649 6.572-14.649 14.649-14.649c8.079 0 14.65 6.572 14.65 14.649zm156.16-37.747c-8.078 0-14.65-6.572-14.65-14.65s6.572-14.649 14.65-14.649 14.649 6.572 14.649 14.649c.001 8.079-6.571 14.65-14.649 14.65z"/></g></svg>